HIERARCHY
ROOT hip
{
	OFFSET 0.000000 0.000000 0.000000 
	CHANNELS 6 Xposition Yposition Zposition Xrotation Zrotation Yrotation
	JOINT abdomen
	{
		OFFSET 0.000000 3.402643 0.000000 
		CHANNELS 3 Xrotation Zrotation Yrotation
		JOINT chest
		{
			OFFSET 0.000000 8.438565 -0.680529 
			CHANNELS 3 Xrotation Zrotation Yrotation
			JOINT neck
			{
				OFFSET 0.000000 10.207942 -0.272212 
				CHANNELS 3 Xrotation Zrotation Yrotation
				JOINT head
				{
					OFFSET 0.000000 3.130431 0.000000 
					CHANNELS 3 Xrotation Zrotation Yrotation
					End Site
					{
						OFFSET 0.000000 3.130435 0.000000 
					}
				}
			}
			JOINT lCollar
			{
				OFFSET 3.470700 6.669187 -0.816635 
				CHANNELS 3 Yrotation Zrotation Xrotation
				JOINT lShldr
				{
					OFFSET 3.198488 0.000000 0.000000 
					CHANNELS 3 Zrotation Yrotation Xrotation
					JOINT lForeArm
					{
						OFFSET 10.139888 0.000000 0.000000 
						CHANNELS 3 Yrotation Zrotation Xrotation
						JOINT lHand
						{
							OFFSET 8.370511 0.000000 0.000000 
							CHANNELS 3 Zrotation Yrotation Xrotation
							End Site
							{
								OFFSET 4.083176 0.000000 0.000000 
							}
						}
					}
				}
			}
			JOINT rCollar
			{
				OFFSET -3.470700 6.669187 -0.816635 
				CHANNELS 3 Yrotation Zrotation Xrotation
				JOINT rShldr
				{
					OFFSET -3.198488 0.000000 0.000000 
					CHANNELS 3 Zrotation Yrotation Xrotation
					JOINT rForeArm
					{
						OFFSET -10.139888 0.000000 0.000000 
						CHANNELS 3 Yrotation Zrotation Xrotation
						JOINT rHand
						{
							OFFSET -8.370511 0.000000 0.000000 
							CHANNELS 3 Zrotation Yrotation Xrotation
							End Site
							{
								OFFSET -4.083176 0.000000 0.000000 
							}
						}
					}
				}
			}
		}
	}
	JOINT lThigh
	{
		OFFSET 5.308129 -1.633274 1.361059 
		CHANNELS 3 Xrotation Zrotation Yrotation
		JOINT lShin
		{
			OFFSET -2.041588 -20.007561 0.000000 
			CHANNELS 3 Xrotation Zrotation Yrotation
			JOINT lFoot
			{
				OFFSET 0.000000 -19.190928 -1.224953 
				CHANNELS 3 Xrotation Yrotation Zrotation
				End Site
				{
					OFFSET 0.000000 -2.449906 4.627600 
				}
			}
		}
	}
	JOINT rThigh
	{
		OFFSET -5.308129 -1.633274 1.361059 
		CHANNELS 3 Xrotation Zrotation Yrotation
		JOINT rShin
		{
			OFFSET 2.041588 -20.007561 0.000000 
			CHANNELS 3 Xrotation Zrotation Yrotation
			JOINT rFoot
			{
				OFFSET 0.000000 -19.190928 -1.224953 
				CHANNELS 3 Xrotation Yrotation Zrotation
				End Site
				{
					OFFSET 0.000000 -2.449906 4.627600 
				}
			}
		}
	}
}
MOTION
Frames: 6
Frame Time: 0.016667
0.873240 50.074814 -0.549694 -0.582088 -10.725436 -69.658249 41.308559 4.864502 4.627103 4.425256 1.356818 2.637395 3.125707 -0.529284 -0.038528 10.107648 -14.703840 46.135700 -11.144083 -2.528459 -0.128319 -32.219467 0.322362 -8.096732 -84.239067 5.000000 -3.958433 -18.952679 -26.949060 0.488852 7.684962 -1.529933 0.071665 90.000000 62.400677 45.000000 106.407829 -5.000000 6.227525 28.449341 -6.298860 8.230543 -9.980554 30.349758 8.781081 29.458397 -5.510201 -3.364248 -1.684035 2.571498 -15.831555 5.281875 -17.902437 1.055455 30.623907 5.061716 3.269221 -19.927416 -15.808740 15.403408 
0.885804 50.104984 -0.454188 -0.654005 -10.951636 -69.641930 41.309879 4.999234 4.696605 4.432957 1.317799 2.578581 3.096305 -0.498856 -0.033250 10.464822 -14.748661 45.961376 -11.173699 -2.664995 -0.135369 -32.004436 0.336247 -8.085073 -84.252388 5.000000 -3.940989 -19.070860 -26.618011 0.859718 7.587202 -1.442143 0.067127 90.000000 62.103359 45.000000 106.428680 -5.000000 6.187354 28.610340 -6.296914 8.148955 -9.706902 30.262913 8.696008 29.461636 -5.644661 -3.503580 -1.873909 2.905914 -15.496359 5.731881 -17.905291 0.956706 30.207693 4.879995 3.110430 -19.752134 -15.734982 15.555392 
0.898114 50.133636 -0.361198 -0.736095 -11.164002 -69.595772 41.290543 5.131749 4.751184 4.412193 1.298296 2.529761 3.106071 -0.498856 -0.033250 10.790606 -14.805117 45.768764 -11.242371 -2.791779 -0.141915 -31.803448 0.383598 -8.072414 -84.251640 5.000000 -3.931100 -19.109678 -26.383770 1.053138 7.528534 -1.373865 0.063598 90.000000 61.830711 45.000000 106.464951 -5.000000 6.147459 28.726269 -6.324721 8.096204 -9.452713 30.122679 8.542576 29.488279 -5.767570 -3.584707 -2.111809 3.219052 -15.168378 6.208815 -17.921850 0.902891 29.733866 4.749040 2.979248 -19.627876 -15.786261 15.650525 
0.909417 50.156246 -0.278267 -0.873436 -11.304488 -69.457260 41.217800 5.221238 4.757610 4.296341 1.386184 2.461417 3.233256 -0.579024 -0.040886 10.954549 -14.934088 45.489861 -11.457541 -2.918562 -0.148461 -31.693468 0.609242 -8.051372 -84.242058 5.000000 -3.935003 -18.937592 -26.565762 0.669251 7.694581 -1.403151 0.065114 90.000000 61.623531 45.000000 106.565804 -5.000000 6.113043 28.719145 -6.433858 8.092015 -9.306026 29.935904 8.287939 29.497736 -5.874880 -3.650506 -2.195357 3.449021 -14.963922 6.669524 -17.994215 1.103383 29.226992 4.763973 2.940195 -19.524012 -16.121830 15.618117 
0.920722 50.178852 -0.195340 -1.001460 -11.445662 -69.319283 41.153484 5.307871 4.751460 4.190092 1.464306 2.393319 3.370252 -0.668847 -0.047062 11.107115 -15.060765 45.220173 -11.672754 -3.055099 -0.155509 -31.573355 0.836207 -8.029286 -84.220284 5.000000 -3.944968 -18.752466 -26.737612 0.272862 7.860640 -1.442189 0.067133 90.000000 61.410648 45.000000 106.665810 -5.000000 6.075001 28.702217 -6.541609 8.087831 -9.149532 29.739733 8.054700 29.487705 -5.972552 -3.741237 -2.320387 3.650355 -14.791586 7.117401 -18.051289 1.315435 28.732006 4.768021 2.880718 -19.421425 -16.443972 15.607818 
0.921976 50.193432 -0.125485 -1.149461 -11.587522 -69.181854 41.061268 5.367320 4.777027 4.179586 1.474095 2.334488 3.438471 -0.628763 -0.043245 11.090870 -15.057389 45.000637 -11.897733 -3.004323 -0.162535 -31.507519 1.016055 -8.051908 -84.255234 5.000000 -3.917544 -18.715542 -26.746174 -0.015348 7.997564 -1.411596 0.075292 90.000000 61.420975 45.000000 106.777847 -5.000000 5.996511 28.513105 -6.665284 8.116392 -8.965067 29.550659 8.169586 29.479881 -5.909539 -3.705552 -2.373780 3.464313 -14.687016 7.548587 -18.151941 1.653319 28.338488 4.876469 2.882085 -19.505119 -16.798115 15.467211 
